<svg width="70" height="70" viewBox="0 0 70 70" fill="none" xmlns="http://www.w3.org/2000/svg">
<path d="M34.9998 5.83331C22.1082 5.83331 11.6665 7.29165 11.6665 17.5V45.2083C11.6665 50.8375 16.2457 55.4166 21.8748 55.4166L17.4998 59.7916V61.25H52.4998V59.7916L48.1248 55.4166C53.754 55.4166 58.3332 50.8375 58.3332 45.2083V17.5C58.3332 7.29165 47.8915 5.83331 34.9998 5.83331ZM21.8748 49.5833C19.454 49.5833 17.4998 47.6291 17.4998 45.2083C17.4998 42.7875 19.454 40.8333 21.8748 40.8333C24.2957 40.8333 26.2498 42.7875 26.2498 45.2083C26.2498 47.6291 24.2957 49.5833 21.8748 49.5833ZM32.0832 32.0833H17.4998V17.5H32.0832V32.0833ZM48.1248 49.5833C45.704 49.5833 43.7498 47.6291 43.7498 45.2083C43.7498 42.7875 45.704 40.8333 48.1248 40.8333C50.5457 40.8333 52.4998 42.7875 52.4998 45.2083C52.4998 47.6291 50.5457 49.5833 48.1248 49.5833ZM52.4998 32.0833H37.9165V17.5H52.4998V32.0833Z" fill="white"/>
</svg>
