<svg width="70" height="70" viewBox="0 0 70 70" fill="none" xmlns="http://www.w3.org/2000/svg">
<path d="M35.0002 20.4167V8.75H5.8335V61.25H64.1668V20.4167H35.0002ZM17.5002 55.4167H11.6668V49.5833H17.5002V55.4167ZM17.5002 43.75H11.6668V37.9167H17.5002V43.75ZM17.5002 32.0833H11.6668V26.25H17.5002V32.0833ZM17.5002 20.4167H11.6668V14.5833H17.5002V20.4167ZM29.1668 55.4167H23.3335V49.5833H29.1668V55.4167ZM29.1668 43.75H23.3335V37.9167H29.1668V43.75ZM29.1668 32.0833H23.3335V26.25H29.1668V32.0833ZM29.1668 20.4167H23.3335V14.5833H29.1668V20.4167ZM58.3335 55.4167H35.0002V49.5833H40.8335V43.75H35.0002V37.9167H40.8335V32.0833H35.0002V26.25H58.3335V55.4167ZM52.5002 32.0833H46.6668V37.9167H52.5002V32.0833ZM52.5002 43.75H46.6668V49.5833H52.5002V43.75Z" fill="white"/>
</svg>
