<svg width="35" height="35" viewBox="0 0 35 35" fill="none" xmlns="http://www.w3.org/2000/svg">
<path d="M26.2498 11.6666C26.2498 6.83954 22.3269 2.91663 17.4998 2.91663C12.6728 2.91663 8.74984 6.83954 8.74984 11.6666C8.74984 18.2291 17.4998 27.7083 17.4998 27.7083C17.4998 27.7083 26.2498 18.2291 26.2498 11.6666ZM14.5832 11.6666C14.5832 10.0625 15.8957 8.74996 17.4998 8.74996C19.104 8.74996 20.4165 10.0625 20.4165 11.6666C20.4165 13.2708 19.1186 14.5833 17.4998 14.5833C15.8957 14.5833 14.5832 13.2708 14.5832 11.6666ZM7.2915 29.1666V32.0833H27.7082V29.1666H7.2915Z" fill="white"/>
</svg>
