<svg width="35" height="35" viewBox="0 0 35 35" fill="none" xmlns="http://www.w3.org/2000/svg">
<path d="M17.4998 5.83337H7.2915C4.87067 5.83337 2.9165 7.78754 2.9165 10.2084V21.875C2.9165 24.2959 4.87067 26.25 7.2915 26.25L5.83317 27.7084V29.1667H7.2915L10.2082 26.2063L13.1248 26.25V18.9584H5.83317V8.72087L18.9582 8.75004V11.6667H21.8748V10.2084C21.8748 7.78754 19.9207 5.83337 17.4998 5.83337ZM7.2915 20.4167C8.09359 20.4167 8.74984 21.073 8.74984 21.875C8.74984 22.6771 8.09359 23.3334 7.2915 23.3334C6.48942 23.3334 5.83317 22.6771 5.83317 21.875C5.83317 21.073 6.48942 20.4167 7.2915 20.4167ZM29.9978 14.0875C29.7936 13.5042 29.2394 13.125 28.5832 13.125H18.0978C17.4269 13.125 16.8873 13.5042 16.6686 14.0875L14.5832 20.0813L14.5978 28.1167C14.5978 28.6709 15.0498 29.1667 15.604 29.1667H16.5082C17.0623 29.1667 17.4998 28.6125 17.4998 28.0584V26.25H29.1665V28.0584C29.1665 28.6125 29.6186 29.1667 30.1728 29.1667H31.0623C31.6165 29.1667 32.0686 28.6709 32.0686 28.1167L32.0832 26.1188V20.0813L29.9978 14.0875ZM18.0978 14.5834H28.5832L30.0853 18.9584H16.5957L18.0978 14.5834ZM17.4998 23.3334C16.6978 23.3334 16.0415 22.6771 16.0415 21.875C16.0415 21.073 16.6978 20.4167 17.4998 20.4167C18.3019 20.4167 18.9582 21.073 18.9582 21.875C18.9582 22.6771 18.3019 23.3334 17.4998 23.3334ZM29.1665 23.3334C28.3644 23.3334 27.7082 22.6771 27.7082 21.875C27.7082 21.073 28.3644 20.4167 29.1665 20.4167C29.9686 20.4167 30.6248 21.073 30.6248 21.875C30.6248 22.6771 29.9686 23.3334 29.1665 23.3334Z" fill="white"/>
</svg>
