<svg width="70" height="70" viewBox="0 0 70 70" fill="none" xmlns="http://www.w3.org/2000/svg">
<path d="M33.5417 5.83337C19.8625 5.83337 8.75 16.9459 8.75 30.625C8.75 44.3042 19.8625 55.4167 33.5417 55.4167H35V64.1667C49.175 57.3417 58.3333 43.75 58.3333 30.625C58.3333 16.9459 47.2208 5.83337 33.5417 5.83337ZM36.4583 48.125H30.625V42.2917H36.4583V48.125ZM36.4583 37.9167H30.625C30.625 28.4375 39.375 29.1667 39.375 23.3334C39.375 20.125 36.75 17.5 33.5417 17.5C30.3333 17.5 27.7083 20.125 27.7083 23.3334H21.875C21.875 16.8875 27.0958 11.6667 33.5417 11.6667C39.9875 11.6667 45.2083 16.8875 45.2083 23.3334C45.2083 30.625 36.4583 31.3542 36.4583 37.9167Z" fill="white"/>
</svg>
